<?xml version="1.0" encoding="UTF-8"?>
<!DOCTYPE svg PUBLIC "-//W3C//DTD SVG 1.1//EN" "http://www.w3.org/Graphics/SVG/1.1/DTD/svg11.dtd">
<svg width="99px" height="36px" viewBox="0 0 99 36" version="1.1" xmlns="http://www.w3.org/2000/svg" xmlns:xlink="http://www.w3.org/1999/xlink">
    <title>parfait_logo</title>
    <defs></defs>
    <g id="Page-1" stroke="none" stroke-width="1" fill="none" fill-rule="evenodd">
        <g id="parfait_logotype" transform="translate(0.000000, 7.000000)" fill="#222222">
            <path d="M11.1723569,13.0701013 C12.2896881,13.0701013 13.050492,12.8890886 13.8208457,12.566557 C15.3933859,11.8523797 16.3038039,10.1969367 16.3038039,8.01162025 C16.3038039,5.96782278 15.4984341,4.55921519 14.1009743,3.8055443 C13.3306206,3.37440506 12.2833215,3.19668354 11.0927749,3.19668354 L6.59161736,3.19668354 L6.59161736,13.0701013 L11.1723569,13.0701013 L11.1723569,13.0701013 Z M3.09000965,22.778962 L3.09000965,22.6769367 L3.09000965,2.86756962 L-0.0932700965,2.86756962 L-0.0932700965,0.234658228 L11.4079196,0.234658228 C12.9136109,0.234658228 14.416119,0.343265823 15.6384984,0.915924051 C18.1914887,2.02832911 19.8340611,4.63820253 19.8340611,8.01162025 C19.8340611,11.5594684 18.0164084,14.4885823 15.1832894,15.4923797 C14.0309421,15.923519 12.8435788,16.0321266 11.4779518,16.0321266 L6.59161736,16.0321266 L6.59161736,22.7394684 L6.59161736,22.6769367 L6.59161736,25.5764304 L3.09000965,25.5764304 L3.09000965,22.778962 L3.09000965,22.778962 Z" id="Shape"></path>
            <path d="M36.5144469,22.943519 L39.0610707,22.943519 L39.0610707,10.8979494 C39.0610707,10.3582025 38.7809421,10.1080759 38.290717,10.1080759 L36.196119,10.1080759 L36.196119,7.47516456 L40.1465691,7.47516456 C41.6840932,7.47516456 42.5626785,8.12022785 42.5626785,9.59136709 L42.5626785,10.5918734 C42.5626785,11.3093418 42.4926463,10.9637722 42.4926463,10.9637722 L42.489463,10.9637722 C42.9892379,8.60731646 45.3034823,7.69237975 47.5922605,7.39946835 C48.1493344,7.33035443 48.9292379,7.34022785 48.9292379,7.34022785 L48.9292379,10.0257975 C48.9292379,10.0257975 47.9456045,10.1014937 47.3535145,10.2528861 C43.6927428,11.1875696 42.5626785,14.4293418 42.5626785,17.980481 L42.5626785,22.943519 L45.1093023,22.943519 L45.1093023,25.5764304 L36.5144469,25.5764304 L36.5144469,22.943519 L36.5144469,22.943519 Z" id="Shape"></path>
            <path d="M49.8842219,22.943519 L52.4308457,22.943519 L52.4308457,10.1080759 L49.5658939,10.1080759 L49.5658939,7.47516456 L52.4308457,7.47516456 L52.4308457,6.57997468 C52.4308457,0.767822785 56.8365048,-0.0944556962 58.9342862,-0.0944556962 C59.876537,-0.0944556962 60.389045,0.0141518987 60.389045,0.0141518987 L60.389045,2.88073418 C60.389045,2.88073418 59.8797203,2.77541772 59.0743505,2.77541772 C57.9570193,2.77541772 55.6141254,3.09794937 55.6141254,6.35946835 L55.6141254,7.47516456 L60.070717,7.47516456 L60.070717,10.1080759 L55.9324534,10.1080759 L55.9324534,22.943519 L59.1157331,22.943519 L59.1157331,25.5764304 L49.8842219,25.5764304 L49.8842219,22.943519 L49.8842219,22.943519 Z" id="Shape"></path>
            <path d="M66.9911672,23.2166835 C69.9961833,23.2166835 71.8488521,20.060481 71.8488521,17.3354177 L71.8488521,16.6903544 L70.9766334,16.6903544 C69.3658939,16.6903544 63.7792379,16.7627595 63.7792379,20.2414937 C63.7792379,21.8541519 64.963418,23.2166835 66.9911672,23.2166835 L66.9911672,23.2166835 Z M70.7315209,14.386557 L71.8488521,14.386557 L71.8488521,13.6394684 C71.8488521,10.7728861 70.2412958,9.76908861 68.0734823,9.76908861 C65.2753794,9.76908861 62.9420354,11.5232658 62.9420354,11.5232658 L61.5795916,9.05162025 C61.5795916,9.05162025 64.3394952,6.89921519 68.4650257,6.89921519 C72.9725498,6.89921519 75.3504598,9.30174684 75.3504598,13.8928861 L75.3504598,22.1536456 C75.3504598,22.6933924 75.6305884,22.943519 76.1208135,22.943519 L78.8520675,22.943519 L78.8520675,25.5764304 L74.2649614,25.5764304 C72.6924212,25.5764304 72.1671801,24.786557 72.1671801,23.605038 L72.1671801,23.1409873 C72.1671801,22.423519 72.3072444,21.9561772 72.3072444,21.9561772 L72.0653151,21.9561772 C72.0653151,21.9561772 70.527791,25.7936456 66.2271801,25.7936456 C63.2921961,25.7936456 60.3540289,24.2138987 60.3540289,20.4817468 C60.3540289,14.7814937 67.7933537,14.386557 70.7315209,14.386557 L70.7315209,14.386557 Z" id="Shape" ></path>
            <path d="M78.8520675,22.943519 L81.3986913,22.943519 L81.3986913,10.1080759 L78.5337395,10.1080759 L78.5337395,7.47516456 L84.900299,7.47516456 L84.900299,22.943519 L87.7652508,22.943519 L87.7652508,25.5764304 L78.8520675,25.5764304 L78.8520675,22.943519 Z" id="Shape" ></path>
            <path d="M90.9485305,10.1080759 L85.218627,10.1080759 L85.218627,7.47516456 L90.9485305,7.47516456 L90.9485305,2.5384557 L94.1318103,2.5384557 L94.1318103,7.47516456 L97.951746,7.47516456 L97.951746,10.1080759 L94.1318103,10.1080759 L94.1318103,18.6090886 C94.1318103,22.3017468 96.5797524,22.6769367 97.9071801,22.6769367 C98.3974051,22.6769367 98.9067299,22.660481 98.9067299,22.660481 L98.9067299,25.5468101 C98.9067299,25.5468101 98.4292379,25.6192152 97.6970836,25.6192152 C95.4592379,25.6192152 90.9485305,24.9017468 90.9485305,18.8394684 L90.9485305,10.1080759 L90.9485305,10.1080759 Z" id="Shape"></path>
            <path d="M29.5112315,17.4440253 C29.5112315,20.1690886 27.6585627,23.2166835 24.6503633,23.2166835 C22.6257974,23.2166835 21.5562154,21.8541519 21.5562154,20.2414937 C21.5562154,16.7627595 27.1174051,16.6903544 28.7249614,16.6903544 L29.5112315,16.6903544 L29.5112315,17.4440253 L29.5112315,17.4440253 Z M33.6717781,22.943519 C33.1815531,22.943519 33.0128392,22.6933924 33.0128392,22.1536456 L33.0128392,13.8928861 C33.0128392,9.30174684 30.6349293,6.89921519 26.1274051,6.89921519 C22.0018746,6.89921519 19.5189164,9.05162025 19.5189164,9.05162025 L20.8845434,11.5232658 C20.8845434,11.5232658 23.2560868,9.76908861 26.0541897,9.76908861 C28.2220032,9.76908861 29.8295595,10.7728861 29.8295595,13.6394684 L29.8295595,14.386557 L28.7122283,14.386557 C25.7740611,14.386557 18.296537,14.7814937 18.296537,20.4817468 C18.296537,24.2138987 21.2347042,25.9055443 24.1696881,25.9055443 C28.470299,25.9055443 30.0078232,22.0680759 30.0078232,22.0680759 L29.9696238,22.0680759 C29.9696238,22.0680759 29.8295595,22.5354177 29.8295595,23.2528861 L29.8295595,23.605038 C29.8295595,24.786557 30.4598489,25.5764304 32.0323891,25.5764304 L36.8327749,25.5764304 L36.8327749,22.943519 L33.6717781,22.943519 L33.6717781,22.943519 Z" id="Shape" ></path>
            <path d="M81.1949614,4.13465823 C81.1949614,3.14731646 81.9780482,2.34427848 82.942582,2.34427848 C83.9039325,2.34427848 84.6870193,3.14731646 84.6870193,4.13465823 C84.6870193,5.122 83.9039325,5.92503797 82.942582,5.92503797 C81.9780482,5.92503797 81.1949614,5.122 81.1949614,4.13465823 L81.1949614,4.13465823 Z" id="Shape" ></path>
        </g>
        <path d="M24.944,3.62 C24.188,3.62 23.441,3.872 23.036,4.007 C23.009,4.016 23,4.043 23,4.061 C23.018,4.178 23.036,4.475 23.036,4.583 L23.036,10.01 C23.036,10.046 23.045,10.073 23.099,10.064 L24.053,9.974 C24.107,9.965 24.116,9.938 24.116,9.902 L24.116,8.138 C24.215,8.156 24.341,8.174 24.512,8.174 C25.799,8.165 27.122,7.337 27.122,5.744 C27.122,4.574 26.42,3.62 24.944,3.62 L24.944,3.62 Z M24.827,4.493 C25.502,4.493 26.006,4.916 26.006,5.798 C26.006,6.833 25.331,7.337 24.548,7.337 C24.395,7.337 24.233,7.319 24.116,7.283 L24.116,4.592 C24.323,4.538 24.521,4.493 24.827,4.493 L24.827,4.493 Z M28.112,3.71 C28.067,3.71 28.049,3.728 28.058,3.764 C28.085,4.061 28.103,4.583 28.103,4.979 L28.103,8.012 C28.103,8.066 28.121,8.084 28.175,8.084 L29.12,8.084 C29.174,8.084 29.192,8.066 29.192,8.012 L29.192,5.15 C29.507,4.808 30.065,4.601 30.578,4.619 C30.632,4.619 30.65,4.601 30.65,4.556 L30.65,3.719 C30.65,3.647 30.641,3.638 30.596,3.629 C30.56,3.62 30.515,3.62 30.479,3.62 C30.047,3.62 29.48,3.872 29.147,4.331 C29.129,4.133 29.093,3.899 29.057,3.782 C29.039,3.728 29.012,3.71 28.958,3.71 L28.112,3.71 Z M33.359,3.62 C32.009,3.62 31.136,4.574 31.136,5.897 C31.136,7.031 31.775,8.174 33.332,8.174 C34.628,8.174 35.528,7.301 35.528,5.879 C35.528,4.619 34.754,3.62 33.359,3.62 L33.359,3.62 Z M33.305,4.421 C34.088,4.421 34.421,5.06 34.421,5.915 C34.421,6.959 33.917,7.373 33.359,7.373 C32.639,7.373 32.243,6.779 32.243,5.879 C32.243,4.97 32.684,4.421 33.305,4.421 L33.305,4.421 Z M36.509,8.309 C36.509,9.083 36.329,9.29 35.726,9.272 C35.681,9.272 35.663,9.299 35.663,9.344 L35.663,10.028 C35.663,10.082 35.681,10.1 35.735,10.118 C35.825,10.145 36.023,10.145 36.104,10.145 C36.464,10.145 36.887,10.055 37.184,9.704 C37.463,9.353 37.598,8.912 37.598,7.661 L37.598,3.782 C37.598,3.728 37.571,3.71 37.526,3.71 L36.581,3.71 C36.536,3.71 36.509,3.737 36.509,3.782 L36.509,8.309 Z M37.058,3.116 C37.418,3.116 37.661,2.9 37.661,2.558 C37.661,2.225 37.436,2 37.067,2 C36.716,2 36.455,2.225 36.455,2.558 C36.455,2.9 36.698,3.116 37.058,3.116 L37.058,3.116 Z M41.504,6.113 C41.999,6.113 42.341,6.104 42.449,6.059 C42.485,6.032 42.53,5.852 42.53,5.465 C42.53,4.628 41.999,3.62 40.676,3.62 C39.326,3.62 38.561,4.637 38.561,5.924 C38.561,7.058 39.155,8.174 40.793,8.174 C41.369,8.165 41.792,8.102 42.143,7.922 C42.179,7.904 42.197,7.886 42.197,7.823 L42.197,7.103 C42.197,7.058 42.17,7.049 42.143,7.058 C41.756,7.229 41.351,7.283 41.018,7.283 C40.109,7.283 39.686,6.797 39.668,6.113 L41.504,6.113 Z M39.668,5.42 C39.74,4.844 40.046,4.394 40.631,4.394 C41.324,4.394 41.504,4.979 41.504,5.249 L41.504,5.348 C41.495,5.384 41.441,5.42 41.108,5.42 L39.668,5.42 Z M46.571,7.166 C46.571,7.13 46.553,7.112 46.508,7.121 C46.31,7.211 46.067,7.283 45.671,7.283 C45.005,7.283 44.375,6.887 44.375,5.888 C44.375,5.042 44.888,4.484 45.698,4.484 C46.049,4.484 46.283,4.547 46.508,4.646 C46.544,4.664 46.571,4.655 46.571,4.601 L46.58,3.872 C46.58,3.818 46.571,3.8 46.535,3.782 C46.391,3.71 46.103,3.62 45.626,3.62 C44.213,3.62 43.259,4.583 43.259,5.915 C43.259,7.184 43.979,8.174 45.446,8.174 C45.896,8.174 46.229,8.12 46.526,7.976 C46.562,7.958 46.571,7.931 46.571,7.895 L46.571,7.166 Z M49.613,7.328 C49.613,7.274 49.586,7.265 49.559,7.274 C49.397,7.319 49.289,7.337 49.172,7.337 C48.785,7.337 48.659,7.139 48.659,6.734 L48.659,4.529 L49.586,4.511 C49.622,4.502 49.64,4.493 49.64,4.439 L49.64,3.773 C49.64,3.728 49.631,3.71 49.577,3.71 L48.668,3.71 C48.677,3.269 48.695,2.684 48.722,2.387 C48.722,2.333 48.695,2.333 48.65,2.342 L47.75,2.513 C47.705,2.522 47.687,2.549 47.678,2.585 C47.633,2.828 47.588,3.395 47.579,3.71 L47.03,3.71 C46.967,3.71 46.958,3.728 46.958,3.782 L46.958,4.43 C46.958,4.484 46.967,4.502 47.021,4.511 L47.579,4.529 L47.579,6.923 C47.579,7.814 48.011,8.174 48.749,8.174 C49.046,8.174 49.316,8.138 49.559,8.021 C49.604,8.003 49.613,7.967 49.613,7.922 L49.613,7.328 Z" id="project" fill="#222222" ></path>
    </g>
</svg>