<?xml version="1.0" encoding="utf-8"?>
<!-- Copyright (c) 2014 Adobe Systems Incorporated. All rights reserved. -->
<svg
xmlns="http://www.w3.org/2000/svg"
xmlns:xlink="http://www.w3.org/1999/xlink"
width="11px" height="38px">
    <g stroke="none" stroke-width="1" fill="none" fill-rule="evenodd">
        <path d="M0,4 C0,3.509 0.509,2 1,2 L2,2 L2,1 C2,0.509 2.509,0 3,0 L8,0 C8.491,0 9,0.509 9,1 L9,2 L10,2 C10.491,2 11,3.509 11,4 L0,4 L0,4 Z M8,1 L3,1 L3,2 L8,2 L8,1 L8,1 Z M10,13 C10,13.736 9.736,14 9,14 L2,14 C1.264,14 1,13.736 1,13 L1,5 L10,5 L10,13 L10,13 Z M4,6.7 C4,5.7 3,5.7 3,6.7 L3,12 C3,13 4,13 4,12 L4,6.7 L4,6.7 Z M6,6.7 C6,5.7 5,5.7 5,6.7 L5,12 C5,13 6,13 6,12 L6,6.7 L6,6.7 Z M8,6.7 C8,5.7 7,5.7 7,6.7 L7,12 C7,13 8,13 8,12 L8,6.7 L8,6.7 Z" id="trash-light" fill="#333333"></path>
        <path d="M0,28 C0,27.509 0.509,26 1,26 L2,26 L2,25 C2,24.509 2.509,24 3,24 L8,24 C8.491,24 9,24.509 9,25 L9,26 L10,26 C10.491,26 11,27.509 11,28 L0,28 L0,28 Z M8,25 L3,25 L3,26 L8,26 L8,25 L8,25 Z M10,37 C10,37.736 9.736,38 9,38 L2,38 C1.264,38 1,37.736 1,37 L1,29 L10,29 L10,37 L10,37 Z M4,30.7 C4,29.7 3,29.7 3,30.7 L3,36 C3,37 4,37 4,36 L4,30.7 L4,30.7 Z M6,30.7 C6,29.7 5,29.7 5,30.7 L5,36 C5,37 6,37 6,36 L6,30.7 L6,30.7 Z M8,30.7 C8,29.7 7,29.7 7,30.7 L7,36 C7,37 8,37 8,36 L8,30.7 L8,30.7 Z" id="trash-dark" fill="#CCCCCC"></path>
    </g>
</svg>
