<?xml version="1.0" encoding="utf-8"?>
<!-- Copyright (c) 2014 Adobe Systems Incorporated. All rights reserved. -->
<!DOCTYPE svg PUBLIC "-//W3C//DTD SVG 1.1//EN" "http://www.w3.org/Graphics/SVG/1.1/DTD/svg11.dtd">
<svg version="1.1" id="Layer_1" xmlns="http://www.w3.org/2000/svg" xmlns:xlink="http://www.w3.org/1999/xlink" x="0px" y="0px" viewBox="0 0 25 18" enable-background="new 0 0 25 18" xml:space="preserve">
	<path fill="#FFFFFF" d="M21.8,3.2c1.1,1.1,1.9,2.4,2.3,3.9c0.4,1.5,0.4,3,0,4.5c-0.4,1.5-1.2,2.8-2.3,3.9C21,16.2,20,16.8,19,17.3
		s-2.1,0.6-3.3,0.7h-0.1h-0.1H7.8c-2.1,0-3.8-0.7-5.3-2.1c-1.5-1.4-2.2-3.2-2.2-5.2c0-2,0.7-3.7,2.2-5.2C4,4,5.8,3.3,7.8,3.3
		c0.4,0,0.9,0,1.3,0.1l0.2-0.2c0.8-0.8,1.8-1.4,2.9-1.9s2.2-0.6,3.4-0.6C18,0.7,20,1.5,21.8,3.2z M7.8,16.3h2.6
		c-0.4-0.3-0.7-0.6-1.1-1l-0.7-0.6H7.8c-1.2,0-2.2-0.4-3-1.2c-0.8-0.8-1.2-1.8-1.2-2.9S4,8.5,4.9,7.7c0.8-0.8,1.7-1.2,2.9-1.2h0.1
		c0.3,0,0.5,0,0.8,0.1c0.7,0.1,1.4,0.4,2,0.9l0.2,0.2L11.2,8l2,1.9c0.2,0.1,0.4,0.2,0.6,0.2c0.2,0,0.4-0.1,0.6-0.2
		c0.2-0.2,0.2-0.4,0.2-0.6c0-0.2-0.1-0.4-0.2-0.6l-1.9-1.9L12,6.5l-0.2-0.2c-0.2-0.2-0.5-0.4-0.6-0.5c-0.5-0.3-1-0.6-1.6-0.8
		C9.4,5,9.1,5,8.7,4.9c-0.3,0-0.6-0.1-0.9-0.1h0c-1.6,0-3,0.6-4.1,1.7C2.6,7.7,2,9,2,10.6s0.6,2.9,1.7,4.1
		C4.9,15.8,6.2,16.3,7.8,16.3z M20.6,14.3c1.4-1.4,2.1-3,2.1-5s-0.7-3.6-2.1-5c-0.7-0.7-1.5-1.2-2.4-1.6c-0.9-0.4-1.8-0.6-2.7-0.6
		c-1.7,0-3.2,0.6-4.6,1.7c0.5,0.2,1,0.5,1.5,0.9c0.9-0.6,2-0.9,3.1-0.9c1.5,0,2.8,0.5,3.9,1.6s1.6,2.3,1.6,3.8
		c0,1.5-0.5,2.8-1.6,3.8c-0.5,0.5-1.1,0.9-1.8,1.2c-0.3,0.1-0.6,0.2-0.8,0.3c-0.4,0.1-0.9,0.2-1.4,0.2c-1.1,0-2-0.3-2.9-0.8
		c-0.4-0.2-0.7-0.5-1-0.8h0L8.2,9.8C8.1,9.7,7.9,9.6,7.7,9.6c-0.2,0-0.4,0.1-0.6,0.2c-0.2,0.2-0.2,0.3-0.2,0.6s0.1,0.4,0.2,0.6
		l2.2,2.2l0.8,0.8l0.3,0.3c0.1,0.1,0.3,0.3,0.5,0.5c1.4,1.1,2.9,1.7,4.6,1.7h0.1c0.2,0,0.6-0.1,1.4-0.3c0.4-0.1,0.7-0.2,0.9-0.3
		C19,15.5,19.9,15,20.6,14.3z"/>
</svg>