<?xml version="1.0" encoding="utf-8"?>
<!-- Copyright (c) 2014 Adobe Systems Incorporated. All rights reserved. -->
<svg xmlns="http://www.w3.org/2000/svg"
	xmlns:xlink="http://www.w3.org/1999/xlink"
	width="17px" height="12px">
<path fill="#454545" fill-rule="evenodd" d="M15.12 1.91 C13.98 0.84 12.64 -0.01 10.77 -0.01 C8.91 -0.01 7.71 0.57 6.59 1.66 C6.59 1.66 6.30 1.94 6.30 1.94 C6.03 1.90 5.64 1.91 5.40 1.91 C4.05 1.91 2.35 2.37 1.41 3.32 C-0.41 5.20 -0.08 8.87 1.62 10.56 C2.56 11.50 4.46 12.00 5.82 12.00 C5.82 12.00 10.57 12.00 10.57 12.00 C10.57 12.00 10.69 11.98 10.69 11.98 C12.24 11.97 13.86 11.20 15.06 10.25 C17.54 8.30 17.50 4.13 15.12 1.91 Z M5.51 11.08 C4.48 11.08 3.40 10.45 2.63 9.67 C1.92 8.96 1.56 8.01 1.56 6.91 C1.56 5.85 1.89 4.91 2.63 4.19 C3.33 3.50 4.37 3.09 5.57 3.07 C5.78 3.06 6.13 3.07 6.33 3.09 C6.53 3.12 6.78 3.17 6.99 3.23 C7.36 3.35 7.54 3.51 7.87 3.73 C8.03 3.84 8.21 3.97 8.34 4.09 C8.34 4.09 9.84 5.55 9.84 5.55 C10.18 5.88 10.23 6.38 9.89 6.72 C9.56 7.03 9.03 6.95 8.71 6.63 C8.71 6.63 7.18 5.17 7.18 5.17 C6.89 4.92 6.48 4.72 6.11 4.62 C5.58 4.48 4.82 4.62 4.10 5.28 C3.21 6.09 3.01 7.75 4.04 8.68 C4.55 9.14 5.28 9.50 5.79 9.50 C5.79 9.50 7.18 10.48 7.37 10.63 C7.37 10.63 7.56 11.08 7.56 11.08 C7.56 11.08 5.51 11.08 5.51 11.08 Z M14.02 9.36 C13.52 9.85 13.04 10.14 12.39 10.37 C12.20 10.44 11.94 10.52 11.72 10.57 C11.40 10.64 10.69 10.68 10.69 10.68 C9.56 10.68 8.21 10.03 7.36 9.34 C7.36 9.34 5.37 7.41 5.37 7.41 C5.21 7.25 5.06 7.02 5.06 6.79 C5.06 6.56 5.14 6.38 5.32 6.22 C5.60 5.95 6.11 5.92 6.43 6.24 C6.43 6.24 8.58 8.39 8.79 8.52 C9.47 8.93 10.92 9.32 11.89 8.87 C12.24 8.70 12.69 8.35 12.96 8.08 C13.53 7.52 13.79 6.88 13.79 6.09 C13.79 5.30 13.47 4.51 12.90 3.95 C12.33 3.40 11.52 3.07 10.71 3.07 C10.23 3.07 9.81 3.16 9.38 3.38 C9.29 3.42 9.08 3.51 9.08 3.51 C9.08 3.51 7.85 2.47 7.85 2.47 C7.85 2.47 7.98 2.36 8.06 2.30 C8.85 1.74 9.71 1.50 10.75 1.51 C11.93 1.52 13.14 1.95 14.01 2.82 C14.91 3.71 15.41 4.81 15.41 6.06 C15.41 7.31 14.93 8.48 14.02 9.36 Z"/>
</svg>
