<?xml version="1.0" encoding="UTF-8" standalone="no"?>
<!-- Copyright (c) 2014 Adobe Systems Incorporated. All rights reserved. -->
<svg
xmlns="http://www.w3.org/2000/svg"
xmlns:xlink="http://www.w3.org/1999/xlink"
width="24" height="120px">
    <g stroke="none" stroke-width="1" fill="none" fill-rule="evenodd">
        <g transform="translate(3.000000, 2.000000)" fill="#BBBBBB">
            <path d="M13.346,3.631 L9.507,-0.251 L5.654,3.631 L7.361,4.249 L9.007,2.499 L9.007,10.5 L9.96,10.5 L9.96,2.5 L11.639,4.249 L13.346,3.631 Z"></path>
            <path d="M13.572,15.05 L15.666,15.2 L9.5,18.136 L3.334,15.2 L5.428,15.05 L3.493,13.537 L0.464,15.2 L9.5,20.163 L18.536,15.2 L15.507,13.537 L13.572,15.05 Z"></path>
            <path d="M11,6.188 L11,8.215 L15.666,10.327 L9.5,13.262 L3.334,10.327 L8,8.215 L8,6.188 L0.464,10.326 L9.5,15.289 L18.536,10.326 L11,6.188 Z"></path>
        </g>
        <g transform="translate(3.000000, 26.000000)" fill="#91CC42">
            <path d="M13.346,3.631 L9.507,-0.251 L5.654,3.631 L7.361,4.249 L9.007,2.499 L9.007,10.5 L9.96,10.5 L9.96,2.5 L11.639,4.249 L13.346,3.631 Z"></path>
            <path d="M13.572,15.05 L15.666,15.2 L9.5,18.136 L3.334,15.2 L5.428,15.05 L3.493,13.537 L0.464,15.2 L9.5,20.163 L18.536,15.2 L15.507,13.537 L13.572,15.05 Z"></path>
            <path d="M11,6.188 L11,8.215 L15.666,10.327 L9.5,13.262 L3.334,10.327 L8,8.215 L8,6.188 L0.464,10.326 L9.5,15.289 L18.536,10.326 L11,6.188 Z"></path>
        </g>
        <g transform="translate(3.000000, 50.000000)" fill="#78B2F2">
            <path d="M13.346,3.631 L9.507,-0.251 L5.654,3.631 L7.361,4.249 L9.007,2.499 L9.007,10.5 L9.96,10.5 L9.96,2.5 L11.639,4.249 L13.346,3.631 Z"></path>
            <path d="M13.572,15.05 L15.666,15.2 L9.5,18.136 L3.334,15.2 L5.428,15.05 L3.493,13.537 L0.464,15.2 L9.5,20.163 L18.536,15.2 L15.507,13.537 L13.572,15.05 Z"></path>
            <path d="M11,6.188 L11,8.215 L15.666,10.327 L9.5,13.262 L3.334,10.327 L8,8.215 L8,6.188 L0.464,10.326 L9.5,15.289 L18.536,10.326 L11,6.188 Z"></path>
        </g>
        <g transform="translate(3.000000, 74.000000)" fill="#E3B551">
            <path d="M13.346,3.631 L9.507,-0.251 L5.654,3.631 L7.361,4.249 L9.007,2.499 L9.007,10.5 L9.96,10.5 L9.96,2.5 L11.639,4.249 L13.346,3.631 Z"></path>
            <path d="M13.572,15.05 L15.666,15.2 L9.5,18.136 L3.334,15.2 L5.428,15.05 L3.493,13.537 L0.464,15.2 L9.5,20.163 L18.536,15.2 L15.507,13.537 L13.572,15.05 Z"></path>
            <path d="M11,6.188 L11,8.215 L15.666,10.327 L9.5,13.262 L3.334,10.327 L8,8.215 L8,6.188 L0.464,10.326 L9.5,15.289 L18.536,10.326 L11,6.188 Z"></path>
        </g>
        <g transform="translate(3.000000, 98.000000)" fill="#F74687">
            <path d="M13.346,3.631 L9.507,-0.251 L5.654,3.631 L7.361,4.249 L9.007,2.499 L9.007,10.5 L9.96,10.5 L9.96,2.5 L11.639,4.249 L13.346,3.631 Z"></path>
            <path d="M13.572,15.05 L15.666,15.2 L9.5,18.136 L3.334,15.2 L5.428,15.05 L3.493,13.537 L0.464,15.2 L9.5,20.163 L18.536,15.2 L15.507,13.537 L13.572,15.05 Z"></path>
            <path d="M11,6.188 L11,8.215 L15.666,10.327 L9.5,13.262 L3.334,10.327 L8,8.215 L8,6.188 L0.464,10.326 L9.5,15.289 L18.536,10.326 L11,6.188 Z"></path>
        </g>
    </g>
</svg>
