<?xml version="1.0" encoding="UTF-8" standalone="no"?>
<!-- Copyright (c) 2014 Adobe Systems Incorporated. All rights reserved. -->
<svg
xmlns="http://www.w3.org/2000/svg"
xmlns:xlink="http://www.w3.org/1999/xlink"
width="16px" height="15px">
    <g stroke="none" stroke-width="1" fill="#78B2F2" fill-rule="evenodd">
        <path d="M5,8 L9,8 L9,12 L5,12 L5,8 L5,8 Z"></path>
        <path d="M3,3 L7,3 L7,7 L3,7 L3,3 L3,3 Z"></path>
        <path d="M9,3 L13,3 L13,7 L9,7 L9,3 L9,3 Z"></path>
        <path d="M0,15 L16,15 L16,0 L0,0 L0,15 L0,15 Z M1,1 L15,1 L15,14 L1,14 L1,1 L1,1 Z"></path>
    </g>
</svg>