<?xml version="1.0" encoding="UTF-8" standalone="no"?>
<!-- Copyright (c) 2014 Adobe Systems Incorporated. All rights reserved. -->
<!DOCTYPE svg PUBLIC "-//W3C//DTD SVG 1.1//EN" "http://www.w3.org/Graphics/SVG/1.1/DTD/svg11.dtd">
<svg version="1.1" xmlns="http://www.w3.org/2000/svg" xmlns:xlink="http://www.w3.org/1999/xlink" x="0px" y="0px"
	 width="24px" height="144px" viewBox="0 0 24 144" enable-background="new 0 0 24 144" xml:space="preserve">
<title>PSDLens</title>
<polygon fill="#BBBBBB" points="14.9,6.8 12.1,4 9.3,6.8 9.9,7.3 11.8,5.3 11.8,11.8 12.5,11.8 12.5,5.3 14.4,7.3 "/>
<polygon fill="#BBBBBB" points="15.8,14.4 17.3,15.2 12.1,18 6.9,15.2 8.5,14.4 7.8,14 5.6,15.2 12.1,18.8 18.7,15.2 16.5,14 "/>
<polygon fill="#BBBBBB" points="13.2,8.7 13.2,9.4 17.3,11.7 12.1,14.5 6.9,11.7 11,9.4 11,8.7 5.6,11.7 12.1,15.3 18.7,11.7 "/>
<polygon fill="#91CC41" points="14.9,30.8 12.1,28 9.3,30.8 9.9,31.3 11.8,29.3 11.8,35.8 12.5,35.8 12.5,29.3 14.4,31.3 "/>
<polygon fill="#91CC41" points="15.8,38.4 17.3,39.2 12.1,42 6.9,39.2 8.5,38.4 7.8,38 5.6,39.2 12.1,42.8 18.7,39.2 16.5,38 "/>
<polygon fill="#91CC41" points="13.2,32.7 13.2,33.4 17.3,35.7 12.1,38.5 6.9,35.7 11,33.4 11,32.7 5.6,35.7 12.1,39.3 18.7,35.7 
	"/>
<polygon fill="#78B2F2" points="14.9,54.9 12.1,52.1 9.3,54.9 9.9,55.4 11.8,53.4 11.8,59.9 12.5,59.9 12.5,53.4 14.4,55.4 "/>
<polygon fill="#78B2F2" points="15.8,62.5 17.3,63.3 12.1,66.2 6.9,63.3 8.5,62.5 7.8,62.1 5.6,63.3 12.1,66.9 18.7,63.3 16.5,62.1 
	"/>
<polygon fill="#78B2F2" points="13.2,56.8 13.2,57.5 17.3,59.8 12.1,62.6 6.9,59.8 11,57.5 11,56.8 5.6,59.8 12.1,63.4 18.7,59.8 
	"/>
<polygon fill="#E3B551" points="14.8,78.9 12,76.1 9.2,78.9 9.7,79.3 11.6,77.3 11.6,83.8 12.4,83.8 12.4,77.3 14.3,79.3 "/>
<polygon fill="#E3B551" points="15.7,86.4 17.2,87.2 12,90.1 6.8,87.2 8.3,86.4 7.6,86 5.5,87.2 12,90.8 18.5,87.2 16.4,86 "/>
<polygon fill="#E3B551" points="13.1,80.7 13.1,81.5 17.2,83.7 12,86.6 6.8,83.7 10.9,81.5 10.9,80.7 5.5,83.7 12,87.3 18.5,83.7 
	"/>
<polygon fill="#F74687" points="14.8,102.9 12,100.1 9.2,102.9 9.7,103.3 11.6,101.3 11.6,107.8 12.4,107.8 12.4,101.3 14.3,103.3 
	"/>
<polygon fill="#F74687" points="15.7,110.4 17.2,111.2 12,114.1 6.8,111.2 8.3,110.4 7.6,110 5.5,111.2 12,114.8 18.5,111.2 
	16.4,110 "/>
<polygon fill="#F74687" points="13.1,104.7 13.1,105.5 17.2,107.7 12,110.6 6.8,107.7 10.9,105.5 10.9,104.7 5.5,107.7 12,111.3 
	18.5,107.7 "/>
<polygon fill="#333333" points="14.8,127 12,124.2 9.2,127 9.7,127.4 11.6,125.4 11.6,131.9 12.4,131.9 12.4,125.4 14.3,127.4 "/>
<polygon fill="#333333" points="15.7,134.5 17.2,135.4 12,138.2 6.8,135.4 8.3,134.5 7.6,134.1 5.5,135.4 12,138.9 18.5,135.4 
	16.4,134.1 "/>
<polygon fill="#333333" points="13.1,128.8 13.1,129.6 17.2,131.8 12,134.7 6.8,131.8 10.9,129.6 10.9,128.8 5.5,131.8 12,135.4 
	18.5,131.8 "/>
</svg>
