<svg xmlns="http://www.w3.org/2000/svg" xmlns:xlink="http://www.w3.org/1999/xlink" width="13px" height="36px">
<!-- Copyright (c) 2014 Adobe Systems Incorporated. All rights reserved. -->
    <g stroke="none" stroke-width="1" fill="none" fill-rule="evenodd">
        <path d="M6.488,0.009 C2.899,0.009 -0.01,2.919 -0.01,6.508 C-0.01,10.097 2.899,13.007 6.488,13.007 C10.078,13.007 12.987,10.097 12.987,6.508 C12.987,2.919 10.078,0.009 6.488,0.009 L6.488,0.009 Z M6.488,12.132 C5.728,12.132 5.198,11.38 5.198,10.619 C5.198,9.882 5.741,9.24 6.488,9.24 C7.236,9.24 7.779,9.882 7.779,10.619 C7.779,11.404 7.273,12.132 6.488,12.132 L6.488,12.132 Z M8.177,6.627 C7.795,7.009 7.435,7.37 7.435,7.632 C7.435,7.854 7.342,7.832 7.49,8.088 C7.548,8.203 7.659,8.676 7.603,8.769 C7.544,8.861 7.432,8.992 7.316,8.992 L5.99,8.992 C5.875,8.992 5.67,8.55 5.538,8.418 C5.195,8.037 5.261,7.764 5.261,7.451 C5.261,6.75 5.798,6.22 6.319,5.709 C6.789,5.244 7.236,4.806 7.236,4.302 C7.236,3.776 6.777,3.437 6.069,3.437 C5.279,3.437 4.75,3.618 4.339,3.795 L4.2,3.825 L4.092,3.825 L3.921,3.657 L3.904,3.518 L3.904,2.327 C3.904,2.254 3.904,2.062 4.094,1.966 C4.564,1.741 5.35,1.474 6.446,1.474 C8.317,1.474 9.575,2.555 9.575,4.166 C9.575,5.227 8.8,6.003 8.177,6.627 L8.177,6.627 Z" id="path-1" fill="#ccc"></path>
        <path d="M6.488,23.009 C2.899,23.009 -0.01,25.919 -0.01,29.508 C-0.01,33.097 2.899,36.007 6.488,36.007 C10.078,36.007 12.987,33.097 12.987,29.508 C12.987,25.919 10.078,23.009 6.488,23.009 L6.488,23.009 Z M6.488,35.132 C5.728,35.132 5.198,34.38 5.198,33.619 C5.198,32.882 5.741,32.24 6.488,32.24 C7.236,32.24 7.779,32.882 7.779,33.619 C7.779,34.404 7.273,35.132 6.488,35.132 L6.488,35.132 Z M8.177,29.627 C7.795,30.009 7.435,30.37 7.435,30.632 C7.435,30.854 7.342,30.832 7.49,31.088 C7.548,31.203 7.659,31.676 7.603,31.769 C7.544,31.861 7.432,31.992 7.316,31.992 L5.99,31.992 C5.875,31.992 5.67,31.55 5.538,31.418 C5.195,31.037 5.261,30.764 5.261,30.451 C5.261,29.75 5.798,29.22 6.319,28.709 C6.789,28.244 7.236,27.806 7.236,27.302 C7.236,26.776 6.777,26.437 6.069,26.437 C5.279,26.437 4.75,26.618 4.339,26.795 L4.2,26.825 L4.092,26.825 L3.921,26.657 L3.904,26.518 L3.904,25.327 C3.904,25.254 3.904,25.062 4.094,24.966 C4.564,24.741 5.35,24.474 6.446,24.474 C8.317,24.474 9.575,25.555 9.575,27.166 C9.575,28.227 8.8,29.003 8.177,29.627 L8.177,29.627 Z" id="path-1" fill="#0083E8"></path>
    </g>
</svg>
