<?xml version="1.0" encoding="utf-8"?>
<!-- Copyright (c) 2014 Adobe Systems Incorporated. All rights reserved. -->
<!DOCTYPE svg PUBLIC "-//W3C//DTD SVG 1.1//EN" "http://www.w3.org/Graphics/SVG/1.1/DTD/svg11.dtd">
<svg version="1.1" id="Layer_1" xmlns="http://www.w3.org/2000/svg" xmlns:xlink="http://www.w3.org/1999/xlink" x="0px" y="0px"
	 viewBox="0 0 233 846" enable-background="new 0 0 233 846" xml:space="preserve">
<path fill="#454545" d="M118.9,48.7c5-28.2,13.3-49.7,13.3-49.7l-116,82.9l116,82.9c0,0-14.9-36.5-16.6-74.6
	c41.4,0,74.6,33.2,74.6,74.6s-33.2,74.6-74.6,74.6S41,206.2,41,164.8H-0.5c0,64.6,51.3,116,116,116s116.1-51.3,116.1-116
	C231.6,101.8,181.9,50.3,118.9,48.7z"/>
<path fill="#CCC" d="M118.9,614c5-28.2,13.3-49.7,13.3-49.7l-116,82.9l116,82.9c0,0-14.9-36.5-16.6-74.6
	c41.4,0,74.6,33.2,74.6,74.6s-33.2,74.6-74.6,74.6S41,771.5,41,730H-0.5c0,64.6,51.3,116,116,116s116.1-51.3,116.1-116
	C231.6,667,181.9,615.6,118.9,614z"/>
<path id="refreshing" fill="#0083E8" d="M118.9,331.7c4.9-28.2,13.3-49.7,13.3-49.7l-116,82.9l116,82.9c0,0-14.9-36.5-16.6-74.6
	c41.4,0,74.6,33.2,74.6,74.6s-33.2,74.6-74.6,74.6S41,489.2,41,447.8H-0.5c0,64.6,51.3,116,116,116s116-51.3,116-116
	C231.6,384.8,181.9,333.4,118.9,331.7z"/>
</svg>
