<?xml version="1.0" encoding="UTF-8" standalone="no"?>
<!-- Copyright (c) 2014 Adobe Systems Incorporated. All rights reserved. -->
<svg
xmlns="http://www.w3.org/2000/svg"
xmlns:xlink="http://www.w3.org/1999/xlink"
width="16px" height="40px">
    <g stroke="none" stroke-width="1" fill="none" fill-rule="evenodd">
        <g transform="translate(1.000000, 2.000000)" fill="#454545">
            <path d="M7,0 L7,11 L14,11 L14,0 L7,0 Z M12,8 L9,5.5 L12,3 L12,8 Z"></path>
            <path d="M15,11 L15,0 L0,0 L0,11 L15,11 Z M1,11 L1,0 L0,1 L15,1 L14,0 L14,11 L15,10 L0,10 L1,11 Z"></path>
        </g>
        <g transform="translate(1.000000, 26.000000)" fill="#0083E8">
            <path d="M7,0 L7,11 L14,11 L14,0 L7,0 Z M10,3 L13,5.5 L10,8 L10,3 Z"></path>
            <path d="M15,11 L15,0 L0,0 L0,11 L15,11 Z M1,11 L1,0 L0,1 L15,1 L14,0 L14,11 L15,10 L0,10 L1,11 Z"></path>
        </g>
    </g>
</svg>
