<?xml version="1.0" encoding="utf-8"?>
<!-- Generator: Adobe Illustrator 19.1.0, SVG Export Plug-In . SVG Version: 6.00 Build 0)  -->
<svg version="1.1" id="Layer_1" xmlns="http://www.w3.org/2000/svg" xmlns:xlink="http://www.w3.org/1999/xlink" x="0px" y="0px"
	 width="24px" height="72px" viewBox="-467 245 24 72" style="enable-background:new -467 245 24 72;" xml:space="preserve">
<metadata><?xpacket begin="﻿" id="W5M0MpCehiHzreSzNTczkc9d"?>
<x:xmpmeta xmlns:x="adobe:ns:meta/" x:xmptk="Adobe XMP Core 5.6-c067 79.157747, 2015/03/30-23:40:42        ">
   <rdf:RDF xmlns:rdf="http://www.w3.org/1999/02/22-rdf-syntax-ns#">
      <rdf:Description rdf:about=""/>
   </rdf:RDF>
</x:xmpmeta>
                                                                                                    
                                                                                                    
                                                                                                    
                                                                                                    
                                                                                                    
                                                                                                    
                                                                                                    
                                                                                                    
                                                                                                    
                                                                                                    
                                                                                                    
                                                                                                    
                                                                                                    
                                                                                                    
                                                                                                    
                                                                                                    
                                                                                                    
                                                                                                    
                                                                                                    
                                                                                                    
                           
<?xpacket end="w"?></metadata>
<style type="text/css">
	.st0{fill:#BBBBBB;}
	.st1{fill:#FFBF5D;}
	.st2{fill:#8FDDFF;}
</style>
<g>
	<g transform="translate(0 0)">
		<g id="icon-eye">
			<path class="st0" d="M-455,248.2c-5.2,0-9.8,3-12,7.5c2.2,4.5,6.8,7.5,12,7.5s9.8-3,12-7.5C-445.2,251.2-449.8,248.2-455,248.2z
				 M-449.1,252.2c1.4,0.9,2.6,2.1,3.5,3.5c-0.9,1.4-2.1,2.6-3.5,3.5c-1.8,1.1-3.8,1.7-5.9,1.7s-4.1-0.6-5.9-1.7
				c-1.4-0.9-2.6-2.1-3.5-3.5c0.9-1.4,2.1-2.6,3.5-3.5c0.1-0.1,0.2-0.1,0.3-0.2c-0.2,0.6-0.4,1.3-0.4,2.1c0,3.3,2.7,6,6,6s6-2.7,6-6
				c0-0.7-0.1-1.4-0.4-2.1C-449.3,252.1-449.2,252.1-449.1,252.2z M-455,253.3c0,1.2-1,2.3-2.2,2.3s-2.2-1-2.2-2.3
				c0-1.2,1-2.2,2.2-2.2S-455,252.1-455,253.3z"/>
		</g>
	</g>
	<g transform="translate(0 48)">
		<g id="icon-eye-blocked">
			<path class="st1" d="M-447.3,251.5c1.8,1.3,3.3,3,4.3,5.1c-2.2,4.5-6.8,7.5-12,7.5c-1.5,0-2.9-0.2-4.2-0.7l1.8-1.8
				c0.8,0.2,1.6,0.3,2.4,0.3c2.1,0,4.1-0.6,5.9-1.7c1.4-0.9,2.6-2.1,3.5-3.5c-0.9-1.4-2-2.5-3.4-3.4L-447.3,251.5L-447.3,251.5z
				 M-455,261c-0.5,0-1-0.1-1.5-0.2l7.3-7.3c0.1,0.5,0.2,1,0.2,1.5C-449,258.3-451.7,261-455,261z M-444.5,244.6h-1.3l-5.1,5.1
				c-1.3-0.4-2.7-0.6-4.1-0.6c-5.2,0-9.8,3-12,7.5c1,2,2.5,3.7,4.2,5l-4.2,4.2v1.3h1.3l21.2-21.2V244.6L-444.5,244.6z M-457.2,252
				c1.1,0,2.1,0.8,2.2,1.9l-2.6,2.6c-1.1-0.2-1.9-1.1-1.9-2.2C-459.5,253-458.5,252-457.2,252z M-464.4,256.6
				c0.9-1.4,2.1-2.6,3.5-3.5c0.1-0.1,0.2-0.1,0.3-0.2c-0.2,0.6-0.4,1.3-0.4,2.1c0,1.4,0.5,2.6,1.2,3.6l-1.4,1.4
				C-462.5,259.1-463.6,257.9-464.4,256.6L-464.4,256.6z"/>
		</g>
	</g>
</g>
<g>
	<g transform="translate(0 24)">
		<g id="icon-eye-alt">
			<path class="st2" d="M-455,248.6c-5.2,0-9.8,3-12,7.5c2.2,4.5,6.8,7.5,12,7.5s9.8-3,12-7.5C-445.3,251.6-449.8,248.6-455,248.6z
				 M-449.1,252.6c1.4,0.9,2.6,2.1,3.5,3.5c-0.9,1.4-2.1,2.6-3.5,3.5c-1.8,1.1-3.8,1.7-5.9,1.7s-4.1-0.6-5.9-1.7
				c-1.4-0.9-2.6-2.1-3.5-3.5c0.9-1.4,2.1-2.6,3.5-3.5c0.1-0.1,0.2-0.1,0.3-0.2c-0.2,0.6-0.4,1.3-0.4,2.1c0,3.3,2.7,6,6,6s6-2.7,6-6
				c0-0.7-0.1-1.4-0.4-2.1C-449.3,252.5-449.2,252.5-449.1,252.6z M-455,253.7c0,1.2-1,2.2-2.2,2.2s-2.2-1-2.2-2.2s1-2.2,2.2-2.2
				S-455,252.5-455,253.7z"/>
		</g>
	</g>
</g>
</svg>
