<svg
xmlns="http://www.w3.org/2000/svg"
xmlns:xlink="http://www.w3.org/1999/xlink"
width="80px" height="200px">
    <g stroke="none" stroke-width="1" fill="none" fill-rule="evenodd">
        <path d="M3,43 L3,42 L5,42 L5,43 L6,43 L6,45 L5,45 L5,46 L3,46 L3,45 L2,45 L2,43 L3,43 Z M0,40 L0,43 L1,43 L1,45 L0,45 L0,48 L3,48 L3,47 L5,47 L5,48 L8,48 L8,45 L7,45 L7,43 L8,43 L8,40 L5,40 L5,41 L3,41 L3,40 L0,40 Z M1,41 L1,42 L2,42 L2,41 L1,41 Z M6,41 L6,42 L7,42 L7,41 L6,41 Z M6,46 L6,47 L7,47 L7,46 L6,46 Z M1,46 L1,47 L2,47 L2,46 L1,46 Z" id="vector-layer" fill="#7E8386"></path>
        <path d="M0,23.0042725 L2.22044605e-16,20.0097046 L8.00660704,20.0097046 L8.00660704,22.9954251 L6,21 L5,21 L5,27 L6,27 L6,28 L2,28 L2,27 L3,27 L3,21 L2,21 L0,23.0042725 Z" id="text-layer" fill="#7E8386"></path>
        <polygon id="layer-warning" stroke="#DDAD00" fill="#FED028" points="5 60 10 69 0 69 "></polygon>
        <g id="download-hover" transform="translate(60.000000, 40.000000)" fill="#215C8D">
            <rect id="line" x="0" y="21" width="21" height="2"></rect>
            <path d="M7,8 L7,0 L14,0 L14,8 L20,8 L10.5,19 L1,8 L7,8 Z" id="arrow"></path>
        </g>
        <g id="download-normal" transform="translate(60.000000, 0.000000)" fill="#B4E4FF">
            <rect id="line" x="0" y="21" width="21" height="2"></rect>
            <path d="M7,8 L7,0 L14,0 L14,8 L20,8 L10.5,19 L1,8 L7,8 Z" id="arrow"></path>
        </g>
        <path d="M4,85 L4,80 L9,80 L9,85 L13,85 L6.5,93 L0,85 L4,85 Z" id="download" fill="#02A0F3"></path>
        <g id="folder-closed" transform="translate(0.000000, 100.000000)" fill="#7E8386">
            <path d="M15.758,2 L0.031,2 C0.02,2.079 0,2.158 0,2.238 L0,12.77 C0,13.853 1.107,15 2.213,15 L15.789,15 C16.893,15 18,13.824 18,12.74 L18,4.26 C18,3.176 16.863,2 15.758,2" id="path"></path>
            <path d="M6.836,0 L7.711,0 L1.5,0 C0.672,0 0,0.448 0,1 L8.336,1 C8.336,0.448 7.664,0 6.836,0" id="path"></path>
        </g>
        <g id="folder-opened" transform="translate(0.000000, 120.000000)" fill="#7E8386">
            <path d="M15.979,3 C15.87,1.966 14.806,1 13.758,1 L9,1 C9,0.687 8.266,0 7.437,0 L3.5,0 C2.672,0 2,0.448 2,1 L2,4 L16,4 L15.979,3" id="path"></path>
            <path d="M0.1,5 L2.565,13 L15.421,13 L17.9,5 L0.1,5" id="path"></path>
        </g>
        <path d="M8.231,140 C3.758,140 0,144.537 0,145.662 C0,146.787 3.72,150.912 8.194,150.912 C12.667,150.912 16.462,146.787 16.462,145.662 C16.462,144.537 12.705,140 8.231,140 L8.231,140 Z M8.207,142.795 C9.182,142.795 9.975,143.586 9.975,144.562 C9.975,145.538 9.182,146.329 8.207,146.329 C7.231,146.329 6.44,145.538 6.44,144.562 C6.44,143.586 7.231,142.795 8.207,142.795 L8.207,142.795 Z M8.266,149.594 C4.475,149.594 1.256,146.592 1.256,145.662 C1.256,145.014 2.809,143.191 5.034,142.147 C5.048,142.195 5.09,142.241 5.16,142.286 C4.55,142.794 4.181,143.531 4.181,144.537 C4.181,146.774 5.959,148.456 8.196,148.456 C10.434,148.456 12.281,146.774 12.281,144.537 C12.281,143.597 11.958,142.892 11.419,142.39 C11.525,142.351 11.608,142.309 11.668,142.266 C13.763,143.323 15.206,145.037 15.206,145.662 C15.206,146.592 12.055,149.594 8.266,149.594 L8.266,149.594 Z" id="visibility" fill="#7E8386"></path>
        <path d="M0.997544646,0 C0.446615951,0 0,0.455664396 0,0.995397568 L0,9.00460243 C0,9.55434533 0.446311399,10 0.997544646,10 L8.00245535,10 C8.55338405,10 9,9.5443356 9,9.00460243 L9,0.995397568 C9,0.445654671 8.5536886,0 8.00245535,0 L0.997544646,0 L0.997544646,0 Z M5,2 L5,5 L7,5 L7,2 L5,2 L5,2 Z M2,6 L2,8 L7,8 L7,6 L2,6 L2,6 Z M2,4 L2,5 L4,5 L4,4 L2,4 L2,4 Z M2,2 L2,3 L4,3 L4,2 L2,2 L2,2 Z" id="layer-comp" fill="#7E8386"></path>
        <path d="M8.85,160 C3.962,160 0,163.962 0,168.85 C0,173.738 3.962,177.7 8.85,177.7 C13.738,177.7 17.7,173.738 17.7,168.85 C17.7,163.962 13.738,160 8.85,160 L8.85,160 Z M7,168 L11,168 L11,175 L7,175 L7,168 Z M9,166 C7.89545455,166 7,165.104545 7,164 C7,162.895455 7.89545455,162 9,162 C10.1045455,162 11,162.895455 11,164 C11,165.104545 10.1045455,166 9,166 L9,166 Z" id="info" fill="#7E8386"></path>
        <path d="M8.85,180 C3.963,180 0,183.962 0,188.85 C0,193.738 3.963,197.7 8.85,197.7 C13.737,197.7 17.7,193.738 17.7,188.85 C17.7,183.962 13.737,180 8.85,180 L8.85,180 Z M8.85,196.644 C7.816,196.644 7.092,195.921 7.092,194.886 C7.092,193.881 7.831,193.15 8.85,193.15 C9.869,193.15 10.608,193.881 10.608,194.886 C10.608,195.954 9.917,196.644 8.85,196.644 L8.85,196.644 Z M11.149,189.208 C10.629,189.728 10.139,190.22 10.139,190.577 C10.139,190.879 10.012,190.849 10.213,191.198 C10.292,191.354 10.288,191.514 10.21,191.641 C10.132,191.767 9.991,191.842 9.833,191.842 L8.028,191.842 C7.869,191.842 7.737,191.827 7.555,191.647 C7.088,191.128 7.178,190.757 7.178,190.33 C7.178,189.375 7.91,188.654 8.618,187.957 C9.26,187.325 9.867,186.728 9.867,186.041 C9.867,185.326 9.243,184.864 8.279,184.864 C7.202,184.864 6.483,185.11 5.922,185.351 L5.735,185.393 L5.586,185.393 L5.354,185.163 L5.331,184.974 L5.331,183.352 C5.331,183.253 5.331,182.992 5.588,182.861 C6.229,182.554 7.299,182.191 8.792,182.191 C11.34,182.191 13.053,183.664 13.053,185.857 C13.053,187.302 11.997,188.359 11.149,189.208 L11.149,189.208 Z" id="help" fill="#7E8386"></path>
    </g>
</svg>