<svg
xmlns="http://www.w3.org/2000/svg"
xmlns:xlink="http://www.w3.org/1999/xlink"
width="9px" height="10px">
    <g stroke="none" stroke-width="1" fill="none" fill-rule="evenodd">
        <path d="M0.997544646,0 C0.446615951,0 0,0.455664396 0,0.995397568 L0,9.00460243 C0,9.55434533 0.446311399,10 0.997544646,10 L8.00245535,10 C8.55338405,10 9,9.5443356 9,9.00460243 L9,0.995397568 C9,0.445654671 8.5536886,0 8.00245535,0 L0.997544646,0 Z M5,2 L5,5 L7,5 L7,2 L5,2 Z M2,6 L2,8 L7,8 L7,6 L2,6 Z M2,4 L2,5 L4,5 L4,4 L2,4 Z M2,2 L2,3 L4,3 L4,2 L2,2 Z" fill="#444444"></path>
    </g>
</svg>
