<svg xmlns="http://www.w3.org/2000/svg" xmlns:xlink="http://www.w3.org/1999/xlink" width="73" height="48">
    <path d="M73,0L64,0L64,3L9,3L9,0L0,0L0,9L3,9L3,39L0,39L0,48L9,48L9,45L64,45L64,48L73,48L73,39L70,39L70,9L73,9L73,0ZM3,3L6,3L6,6L3,6L3,3ZM3,42L6,42L6,45L3,45L3,42ZM9,42L9,39L6,39L6,9L9,9L9,6L64,6L64,9L67,9L67,39L64,39L64,42L9,42ZM67,42L70,42L70,45L67,45L67,42ZM67,3L70,3L70,6L67,6L67,3Z" fill="#e9e9e9"/>
    <path d="M19.024,27.588C19.616,28.116,20.284,28.544,21.028,28.872C21.772,29.2,22.528,29.364,23.296,29.364C24.256,29.364,24.984,29.18,25.48,28.812C25.976,28.444,26.224,27.956,26.224,27.348C26.224,27.028,26.16,26.756,26.032,26.532C25.904,26.308,25.724,26.112,25.492,25.944C25.26,25.776,24.98,25.62,24.652,25.476C24.324,25.332,23.968,25.188,23.584,25.044L21.448,24.108C21.032,23.948,20.624,23.748,20.224,23.508C19.824,23.268,19.464,22.98,19.144,22.644C18.824,22.308,18.568,21.916,18.376,21.468C18.184,21.02,18.088,20.508,18.088,19.932C18.088,19.308,18.224,18.728,18.496,18.192C18.768,17.656,19.144,17.188,19.624,16.788C20.104,16.388,20.676,16.076,21.34,15.852C22,15.628,22.736,15.516,23.536,15.516C24.496,15.516,25.412,15.696,26.284,16.056C27.156,16.416,27.92,16.9,28.576,17.508L27.136,19.284C26.608,18.868,26.056,18.54,25.48,18.3C24.904,18.06,24.256,17.94,23.536,17.94C22.72,17.94,22.076,18.104,21.604,18.432C21.132,18.76,20.896,19.212,20.896,19.788C20.896,20.092,20.968,20.352,21.112,20.568C21.256,20.784,21.452,20.976,21.7,21.144C21.948,21.312,22.236,21.46,22.564,21.588C22.892,21.716,23.232,21.852,23.584,21.996L25.648,22.884C26.144,23.076,26.6,23.3,27.016,23.556C27.432,23.812,27.792,24.108,28.096,24.444C28.4,24.78,28.636,25.168,28.804,25.608C28.972,26.048,29.056,26.556,29.056,27.132C29.056,27.772,28.924,28.372,28.66,28.932C28.396,29.492,28.016,29.984,27.52,30.408C27.024,30.832,26.416,31.168,25.696,31.416C24.976,31.664,24.16,31.788,23.248,31.788C22.144,31.788,21.088,31.588,20.08,31.188C19.072,30.788,18.176,30.22,17.392,29.484L19.024,27.588ZM30.072,15.804L33.024,15.804L35.232,23.7C35.488,24.596,35.716,25.444,35.916,26.244C36.116,27.044,36.352,27.9,36.624,28.812L36.72,28.812C36.992,27.9,37.228,27.044,37.428,26.244C37.628,25.444,37.848,24.596,38.088,23.7L40.272,15.804L43.128,15.804L38.256,31.5L34.968,31.5L30.072,15.804ZM43.952,23.7C43.952,22.404,44.132,21.252,44.492,20.244C44.852,19.236,45.348,18.38,45.98,17.676C46.612,16.972,47.364,16.436,48.236,16.068C49.108,15.7,50.056,15.516,51.08,15.516C52.12,15.516,53,15.72,53.732,16.128C54.46,16.536,55.056,16.988,55.52,17.484L53.984,19.212C53.616,18.844,53.212,18.54,52.772,18.3C52.332,18.06,51.768,17.94,51.08,17.94C50.456,17.94,49.884,18.072,49.364,18.336C48.844,18.6,48.396,18.976,48.02,19.464C47.644,19.952,47.352,20.548,47.144,21.252C46.936,21.956,46.832,22.748,46.832,23.628C46.832,25.42,47.196,26.824,47.924,27.84C48.652,28.856,49.72,29.364,51.128,29.364C51.544,29.364,51.944,29.304,52.328,29.184C52.712,29.064,53.016,28.892,53.24,28.668L53.24,25.284L50.528,25.284L50.528,23L55.76,23L55.76,29.916C55.248,30.428,54.572,30.868,53.732,31.236C52.892,31.604,51.968,31.788,50.96,31.788C49.968,31.788,49.044,31.612,48.188,31.26C47.332,30.908,46.592,30.388,45.968,29.7C45.344,29.012,44.852,28.164,44.492,27.156C44.132,26.148,43.952,24.996,43.952,23.7Z" fill="#bcbcbc"/>
</svg>
